<?xml version="1.0" encoding="UTF-8" standalone="no"?>
<svg width="37px" height="45px" viewBox="0 0 37 45" version="1.1" xmlns="http://www.w3.org/2000/svg" xmlns:xlink="http://www.w3.org/1999/xlink" xmlns:sketch="http://www.bohemiancoding.com/sketch/ns">
    <!-- Generator: Sketch 3.2.2 (9983) - http://www.bohemiancoding.com/sketch -->
    <title>Imported Layers</title>
    <desc>Created with Sketch.</desc>
    <defs></defs>
    <g id="Page-1" stroke="none" stroke-width="1" fill="none" fill-rule="evenodd" sketch:type="MSPage">
        <g id="Event-Details" sketch:type="MSArtboardGroup" transform="translate(-674.000000, -31.000000)" fill="#FFFFFF">
            <g id="Imported-Layers" sketch:type="MSLayerGroup" transform="translate(674.000000, 31.000000)">
                <path d="M18.5158571,44.5673077 C17.6102381,44.5673077 16.7521905,44.2869231 16.0342143,43.7547115 C8.51440476,38.3235577 3.2542381,30.4139423 1.23509524,21.4918269 C1.22188095,21.4329808 1.21307143,21.3732692 1.20778571,21.3144231 C0.96552381,20.1591346 0.842190476,18.9700962 0.842190476,17.7767308 C0.842190476,8.21336538 8.76283333,0.432692308 18.4982381,0.432692308 C28.2354048,0.432692308 36.1578095,8.21336538 36.1578095,17.7767308 C36.1578095,19.0497115 36.0195,20.3071154 35.7455238,21.5186538 C35.7402381,21.5775 35.7314286,21.6354808 35.7173333,21.6943269 C33.6964286,30.4061538 28.5525476,38.1729808 21.2327143,43.5634615 L20.6874048,43.9563462 C20.6486429,43.9840385 20.6072381,44.01 20.5649524,44.0342308 C19.9412381,44.3829808 19.2329524,44.5673077 18.5158571,44.5673077 L18.5158571,44.5673077 Z M3.85152381,21.0868269 C5.75790476,29.3304808 10.6401429,36.6360577 17.612881,41.6725962 C18.0789048,42.01875 18.6982143,42.0628846 19.1994762,41.8084615 L19.6558095,41.4804808 C26.418881,36.4993269 31.191881,29.3304808 33.1017857,21.2858654 C33.1070714,21.2261538 33.115881,21.1664423 33.1299762,21.1075962 C33.3854524,20.0345192 33.5149524,18.9138462 33.5149524,17.7767308 C33.5149524,9.64557692 26.7783095,3.02884615 18.4982381,3.02884615 C10.2199286,3.02884615 3.48504762,9.64557692 3.48504762,17.7767308 C3.48504762,18.84375 3.59957143,19.9055769 3.82685714,20.9327885 C3.83830952,20.9838462 3.8462381,21.0357692 3.85152381,21.0868269 L3.85152381,21.0868269 Z" id="Fill-1" sketch:type="MSShapeGroup"></path>
                <path d="M18.4982381,25.1991346 C14.3322143,25.1991346 10.9431905,21.8691346 10.9431905,17.7775962 C10.9431905,13.6843269 14.3322143,10.3534615 18.4982381,10.3534615 C22.6660238,10.3534615 26.0576905,13.6843269 26.0576905,17.7775962 C26.0576905,21.8691346 22.6660238,25.1991346 18.4982381,25.1991346 L18.4982381,25.1991346 Z M18.4982381,12.9496154 C15.7893095,12.9496154 13.5860476,15.1156731 13.5860476,17.7775962 C13.5860476,20.4377885 15.7893095,22.6029808 18.4982381,22.6029808 C21.2089286,22.6029808 23.4148333,20.4377885 23.4148333,17.7775962 C23.4148333,15.1156731 21.2089286,12.9496154 18.4982381,12.9496154 L18.4982381,12.9496154 Z" id="Fill-2" sketch:type="MSShapeGroup"></path>
            </g>
        </g>
    </g>
</svg>