<?xml version="1.0" encoding="UTF-8" standalone="no"?>
<svg width="52px" height="48px" viewBox="0 0 52 48" version="1.1" xmlns="http://www.w3.org/2000/svg" xmlns:xlink="http://www.w3.org/1999/xlink" xmlns:sketch="http://www.bohemiancoding.com/sketch/ns">
    <!-- Generator: Sketch 3.2.2 (9983) - http://www.bohemiancoding.com/sketch -->
    <title>Imported Layers</title>
    <desc>Created with Sketch.</desc>
    <defs></defs>
    <g id="Page-1" stroke="none" stroke-width="1" fill="none" fill-rule="evenodd" sketch:type="MSPage">
        <g id="Events" sketch:type="MSArtboardGroup" transform="translate(-654.000000, -29.000000)" fill="#FFFFFF">
            <g id="Imported-Layers" sketch:type="MSLayerGroup" transform="translate(654.000000, 29.000000)">
                <path d="M6.37,12.393 C3.133,12.393 0.501,9.759 0.501,6.522 C0.501,3.286 3.133,0.653 6.37,0.653 C9.605,0.653 12.238,3.286 12.238,6.522 C12.238,9.759 9.605,12.393 6.37,12.393 L6.37,12.393 Z M6.37,3.653 C4.788,3.653 3.501,4.94 3.501,6.522 C3.501,8.106 4.788,9.393 6.37,9.393 C7.951,9.393 9.238,8.106 9.238,6.522 C9.238,4.94 7.951,3.653 6.37,3.653 L6.37,3.653 Z" id="Fill-1" sketch:type="MSShapeGroup"></path>
                <path d="M50,8.022 L19.259,8.022 C18.43,8.022 17.759,7.351 17.759,6.522 C17.759,5.694 18.43,5.022 19.259,5.022 L50,5.022 C50.829,5.022 51.5,5.694 51.5,6.522 C51.5,7.351 50.829,8.022 50,8.022" id="Fill-2" sketch:type="MSShapeGroup"></path>
                <path d="M6.37,29.869 C3.133,29.869 0.501,27.236 0.501,24 C0.501,20.764 3.133,18.131 6.37,18.131 C9.605,18.131 12.238,20.764 12.238,24 C12.238,27.236 9.605,29.869 6.37,29.869 L6.37,29.869 Z M6.37,21.131 C4.788,21.131 3.501,22.418 3.501,24 C3.501,25.582 4.788,26.869 6.37,26.869 C7.951,26.869 9.238,25.582 9.238,24 C9.238,22.418 7.951,21.131 6.37,21.131 L6.37,21.131 Z" id="Fill-3" sketch:type="MSShapeGroup"></path>
                <path d="M50,25.5 L19.259,25.5 C18.43,25.5 17.759,24.828 17.759,24 C17.759,23.172 18.43,22.5 19.259,22.5 L50,22.5 C50.829,22.5 51.5,23.172 51.5,24 C51.5,24.828 50.829,25.5 50,25.5" id="Fill-4" sketch:type="MSShapeGroup"></path>
                <path d="M6.37,47.347 C3.133,47.347 0.501,44.714 0.501,41.477 C0.501,38.241 3.133,35.608 6.37,35.608 C9.605,35.608 12.238,38.241 12.238,41.477 C12.238,44.714 9.605,47.347 6.37,47.347 L6.37,47.347 Z M6.37,38.608 C4.788,38.608 3.501,39.895 3.501,41.477 C3.501,43.06 4.788,44.347 6.37,44.347 C7.951,44.347 9.238,43.06 9.238,41.477 C9.238,39.895 7.951,38.608 6.37,38.608 L6.37,38.608 Z" id="Fill-5" sketch:type="MSShapeGroup"></path>
                <path d="M50,42.977 L19.259,42.977 C18.43,42.977 17.759,42.306 17.759,41.477 C17.759,40.649 18.43,39.977 19.259,39.977 L50,39.977 C50.829,39.977 51.5,40.649 51.5,41.477 C51.5,42.306 50.829,42.977 50,42.977" id="Fill-6" sketch:type="MSShapeGroup"></path>
            </g>
        </g>
    </g>
</svg>