<?xml version="1.0" encoding="UTF-8" standalone="no"?>
<svg width="51px" height="38px" viewBox="0 0 51 38" version="1.1" xmlns="http://www.w3.org/2000/svg" xmlns:xlink="http://www.w3.org/1999/xlink" xmlns:sketch="http://www.bohemiancoding.com/sketch/ns">
    <!-- Generator: Sketch 3.2.2 (9983) - http://www.bohemiancoding.com/sketch -->
    <title>Imported Layers</title>
    <desc>Created with Sketch.</desc>
    <defs></defs>
    <g id="Page-1" stroke="none" stroke-width="1" fill="none" fill-rule="evenodd" sketch:type="MSPage">
        <g id="Articles" sketch:type="MSArtboardGroup" transform="translate(-586.000000, -38.000000)" fill="#FFFFFF">
            <path d="M635.493155,75.0339273 C635.238155,75.0339273 634.980155,74.9689273 634.744155,74.8329273 L614.632155,63.2209273 C613.915155,62.8069273 613.669155,61.8889273 614.083155,61.1719273 C617.789155,54.7519273 615.581155,46.5139273 609.162155,42.8079273 C606.051155,41.0129273 602.428155,40.5349273 598.960155,41.4649273 C595.492155,42.3939273 592.593155,44.6179273 590.798155,47.7279273 C587.092155,54.1469273 589.299155,62.3859273 595.718155,66.0929273 C599.834155,68.4699273 604.962155,68.4839273 609.101155,66.1299273 C609.821155,65.7219273 610.737155,65.9719273 611.147155,66.6919273 C611.557155,67.4129273 611.305155,68.3279273 610.585155,68.7379273 C605.525155,71.6159273 599.253155,71.5979273 594.218155,68.6909273 C586.366155,64.1569273 583.666155,54.0799273 588.200155,46.2279273 C590.396155,42.4239273 593.941155,39.7039273 598.184155,38.5669273 C602.425155,37.4309273 606.858155,38.0139273 610.662155,40.2099273 C614.466155,42.4059273 617.186155,45.9519273 618.323155,50.1939273 C619.330155,53.9509273 618.988155,57.8539273 617.373155,61.3389273 L636.244155,72.2349273 C636.961155,72.6489273 637.207155,73.5659273 636.793155,74.2839273 C636.515155,74.7649273 636.011155,75.0339273 635.493155,75.0339273" id="Imported-Layers" sketch:type="MSShapeGroup"></path>
        </g>
    </g>
</svg>